<svg width="27" height="17" viewBox="0 0 27 17" fill="none" xmlns="http://www.w3.org/2000/svg">
<path opacity="0.75" d="M13.5 0C14.5443 0 15.5458 0.432327 16.2842 1.20187C17.0227 1.97142 17.4375 3.01515 17.4375 4.10345C17.4375 5.19175 17.0227 6.23548 16.2842 7.00502C15.5458 7.77457 14.5443 8.2069 13.5 8.2069C12.4557 8.2069 11.4542 7.77457 10.7158 7.00502C9.97734 6.23548 9.5625 5.19175 9.5625 4.10345C9.5625 3.01515 9.97734 1.97142 10.7158 1.20187C11.4542 0.432327 12.4557 0 13.5 0ZM5.625 2.93103C6.255 2.93103 6.84 3.1069 7.34625 3.42345C7.1775 5.1 7.65 6.76483 8.6175 8.06621C8.055 9.19172 6.93 9.96552 5.625 9.96552C4.72989 9.96552 3.87145 9.59495 3.23851 8.93534C2.60558 8.27573 2.25 7.38111 2.25 6.44828C2.25 5.51545 2.60558 4.62082 3.23851 3.96121C3.87145 3.3016 4.72989 2.93103 5.625 2.93103ZM21.375 2.93103C22.2701 2.93103 23.1286 3.3016 23.7615 3.96121C24.3944 4.62082 24.75 5.51545 24.75 6.44828C24.75 7.38111 24.3944 8.27573 23.7615 8.93534C23.1286 9.59495 22.2701 9.96552 21.375 9.96552C20.07 9.96552 18.945 9.19172 18.3825 8.06621C19.35 6.76483 19.8225 5.1 19.6537 3.42345C20.16 3.1069 20.745 2.93103 21.375 2.93103ZM6.1875 14.9483C6.1875 12.5214 9.46125 10.5517 13.5 10.5517C17.5387 10.5517 20.8125 12.5214 20.8125 14.9483V17H6.1875V14.9483ZM0 17V15.2414C0 13.6117 2.12625 12.24 5.00625 11.8414C4.3425 12.6386 3.9375 13.7407 3.9375 14.9483V17H0ZM27 17H23.0625V14.9483C23.0625 13.7407 22.6575 12.6386 21.9937 11.8414C24.8737 12.24 27 13.6117 27 15.2414V17Z" fill="black"/>
</svg>
