<svg width="13" height="12" viewBox="0 0 13 12" fill="none" xmlns="http://www.w3.org/2000/svg">
<path d="M1.54167 0H11.4583C11.8341 0 12.1944 0.140476 12.4601 0.390524C12.7257 0.640573 12.875 0.979711 12.875 1.33333V10.6667C12.875 11.0203 12.7257 11.3594 12.4601 11.6095C12.1944 11.8595 11.8341 12 11.4583 12H1.54167C1.16594 12 0.805609 11.8595 0.539932 11.6095C0.274255 11.3594 0.125 11.0203 0.125 10.6667V1.33333C0.125 0.979711 0.274255 0.640573 0.539932 0.390524C0.805609 0.140476 1.16594 0 1.54167 0ZM2.95833 1.33333C2.58261 1.33333 2.22228 1.47381 1.9566 1.72386C1.69092 1.97391 1.54167 2.31304 1.54167 2.66667C1.54167 3.02029 1.69092 3.35943 1.9566 3.60948C2.22228 3.85952 2.58261 4 2.95833 4C3.33406 4 3.69439 3.85952 3.96007 3.60948C4.22574 3.35943 4.375 3.02029 4.375 2.66667C4.375 2.31304 4.22574 1.97391 3.96007 1.72386C3.69439 1.47381 3.33406 1.33333 2.95833 1.33333ZM10.0417 8C9.66594 8 9.30561 8.14048 9.03993 8.39052C8.77426 8.64057 8.625 8.97971 8.625 9.33333C8.625 9.68696 8.77426 10.0261 9.03993 10.2761C9.30561 10.5262 9.66594 10.6667 10.0417 10.6667C10.4174 10.6667 10.7777 10.5262 11.0434 10.2761C11.3091 10.0261 11.4583 9.68696 11.4583 9.33333C11.4583 8.97971 11.3091 8.64057 11.0434 8.39052C10.7777 8.14048 10.4174 8 10.0417 8ZM10.0417 1.33333C9.66594 1.33333 9.30561 1.47381 9.03993 1.72386C8.77426 1.97391 8.625 2.31304 8.625 2.66667C8.625 3.02029 8.77426 3.35943 9.03993 3.60948C9.30561 3.85952 9.66594 4 10.0417 4C10.4174 4 10.7777 3.85952 11.0434 3.60948C11.3091 3.35943 11.4583 3.02029 11.4583 2.66667C11.4583 2.31304 11.3091 1.97391 11.0434 1.72386C10.7777 1.47381 10.4174 1.33333 10.0417 1.33333ZM6.5 4.66667C6.12428 4.66667 5.76394 4.80714 5.49827 5.05719C5.23259 5.30724 5.08333 5.64638 5.08333 6C5.08333 6.35362 5.23259 6.69276 5.49827 6.94281C5.76394 7.19286 6.12428 7.33333 6.5 7.33333C6.87572 7.33333 7.23606 7.19286 7.50173 6.94281C7.76741 6.69276 7.91667 6.35362 7.91667 6C7.91667 5.64638 7.76741 5.30724 7.50173 5.05719C7.23606 4.80714 6.87572 4.66667 6.5 4.66667ZM2.95833 8C2.58261 8 2.22228 8.14048 1.9566 8.39052C1.69092 8.64057 1.54167 8.97971 1.54167 9.33333C1.54167 9.68696 1.69092 10.0261 1.9566 10.2761C2.22228 10.5262 2.58261 10.6667 2.95833 10.6667C3.33406 10.6667 3.69439 10.5262 3.96007 10.2761C4.22574 10.0261 4.375 9.68696 4.375 9.33333C4.375 8.97971 4.22574 8.64057 3.96007 8.39052C3.69439 8.14048 3.33406 8 2.95833 8Z" fill="black"/>
</svg>
