<svg width="12" height="19" viewBox="0 0 12 19" fill="none" xmlns="http://www.w3.org/2000/svg">
<path opacity="0.75" d="M4.85714 10V8.94737H7.14286V10H4.85714ZM4.85714 7.89474V6.84211H7.14286V7.89474H4.85714ZM4.85714 5.78947V4.73684H7.14286V5.78947H4.85714ZM8 3.68421H4L6 0L8 3.68421Z" fill="black"/>
<path opacity="0.75" d="M0 12H12V19H0V12ZM6 13.75C6.53043 13.75 7.03914 13.9344 7.41421 14.2626C7.78929 14.5908 8 15.0359 8 15.5C8 15.9641 7.78929 16.4092 7.41421 16.7374C7.03914 17.0656 6.53043 17.25 6 17.25C5.46957 17.25 4.96086 17.0656 4.58579 16.7374C4.21071 16.4092 4 15.9641 4 15.5C4 15.0359 4.21071 14.5908 4.58579 14.2626C4.96086 13.9344 5.46957 13.75 6 13.75ZM2.66667 13.1667C2.66667 13.4761 2.52619 13.7728 2.27614 13.9916C2.02609 14.2104 1.68696 14.3333 1.33333 14.3333V16.6667C1.68696 16.6667 2.02609 16.7896 2.27614 17.0084C2.52619 17.2272 2.66667 17.5239 2.66667 17.8333H9.33333C9.33333 17.5239 9.47381 17.2272 9.72386 17.0084C9.97391 16.7896 10.313 16.6667 10.6667 16.6667V14.3333C10.313 14.3333 9.97391 14.2104 9.72386 13.9916C9.47381 13.7728 9.33333 13.4761 9.33333 13.1667H2.66667Z" fill="black"/>
</svg>
