<svg width="73" height="73" viewBox="0 0 73 73" fill="none" xmlns="http://www.w3.org/2000/svg">
<g opacity="0.55" filter="url(#filter0_d_125_40)">
<path d="M11.2222 0H61.7778C63.6932 0 65.5302 0.76091 66.8847 2.11534C68.2391 3.46977 69 5.30677 69 7.22222V57.7778C69 59.6932 68.2391 61.5302 66.8847 62.8847C65.5302 64.2391 63.6932 65 61.7778 65H11.2222C9.30677 65 7.46977 64.2391 6.11534 62.8847C4.76091 61.5302 4 59.6932 4 57.7778V7.22222C4 5.30677 4.76091 3.46977 6.11534 2.11534C7.46977 0.76091 9.30677 0 11.2222 0ZM36.5 25.2778C34.5845 25.2778 32.7475 26.0387 31.3931 27.3931C30.0387 28.7475 29.2778 30.5845 29.2778 32.5C29.2778 34.4155 30.0387 36.2525 31.3931 37.6069C32.7475 38.9613 34.5845 39.7222 36.5 39.7222C38.4155 39.7222 40.2525 38.9613 41.6069 37.6069C42.9613 36.2525 43.7222 34.4155 43.7222 32.5C43.7222 30.5845 42.9613 28.7475 41.6069 27.3931C40.2525 26.0387 38.4155 25.2778 36.5 25.2778ZM18.4444 7.22222C16.529 7.22222 14.692 7.98313 13.3376 9.33756C11.9831 10.692 11.2222 12.529 11.2222 14.4444C11.2222 16.3599 11.9831 18.1969 13.3376 19.5513C14.692 20.9058 16.529 21.6667 18.4444 21.6667C20.3599 21.6667 22.1969 20.9058 23.5513 19.5513C24.9058 18.1969 25.6667 16.3599 25.6667 14.4444C25.6667 12.529 24.9058 10.692 23.5513 9.33756C22.1969 7.98313 20.3599 7.22222 18.4444 7.22222ZM54.5556 43.3333C52.6401 43.3333 50.8031 44.0942 49.4487 45.4487C48.0942 46.8031 47.3333 48.6401 47.3333 50.5556C47.3333 52.471 48.0942 54.308 49.4487 55.6624C50.8031 57.0169 52.6401 57.7778 54.5556 57.7778C56.471 57.7778 58.308 57.0169 59.6624 55.6624C61.0169 54.308 61.7778 52.471 61.7778 50.5556C61.7778 48.6401 61.0169 46.8031 59.6624 45.4487C58.308 44.0942 56.471 43.3333 54.5556 43.3333Z" fill="black"/>
<path d="M11.2222 0.5H61.7778C63.5606 0.5 65.2704 1.20823 66.5311 2.46889C67.7918 3.72955 68.5 5.43938 68.5 7.22222V57.7778C68.5 59.5606 67.7918 61.2704 66.5311 62.5311C65.2704 63.7918 63.5606 64.5 61.7778 64.5H11.2222C9.43938 64.5 7.72955 63.7918 6.46889 62.5311C5.20823 61.2704 4.5 59.5606 4.5 57.7778V7.22222C4.5 5.43938 5.20823 3.72955 6.46889 2.46889C7.72955 1.20823 9.43938 0.5 11.2222 0.5ZM36.5 24.7778C34.4519 24.7778 32.4878 25.5914 31.0396 27.0396C29.5914 28.4878 28.7778 30.4519 28.7778 32.5C28.7778 34.5481 29.5914 36.5122 31.0396 37.9604C32.4878 39.4086 34.4519 40.2222 36.5 40.2222C38.5481 40.2222 40.5122 39.4086 41.9604 37.9604C43.4086 36.5122 44.2222 34.5481 44.2222 32.5C44.2222 30.4519 43.4086 28.4878 41.9604 27.0396C40.5122 25.5914 38.5481 24.7778 36.5 24.7778ZM18.4444 6.72222C16.3964 6.72222 14.4322 7.53581 12.984 8.98401C11.5358 10.4322 10.7222 12.3964 10.7222 14.4444C10.7222 16.4925 11.5358 18.4567 12.984 19.9049C14.4322 21.3531 16.3964 22.1667 18.4444 22.1667C20.4925 22.1667 22.4567 21.3531 23.9049 19.9049C25.3531 18.4567 26.1667 16.4925 26.1667 14.4444C26.1667 12.3964 25.3531 10.4322 23.9049 8.98401C22.4567 7.53581 20.4925 6.72222 18.4444 6.72222ZM54.5556 42.8333C52.5075 42.8333 50.5433 43.6469 49.0951 45.0951C47.6469 46.5433 46.8333 48.5075 46.8333 50.5556C46.8333 52.6036 47.6469 54.5678 49.0951 56.016C50.5433 57.4642 52.5075 58.2778 54.5556 58.2778C56.6036 58.2778 58.5678 57.4642 60.016 56.016C61.4642 54.5678 62.2778 52.6036 62.2778 50.5556C62.2778 48.5075 61.4642 46.5433 60.016 45.0951C58.5678 43.6469 56.6036 42.8333 54.5556 42.8333Z" stroke="black"/>
</g>
<defs>
<filter id="filter0_d_125_40" x="0" y="0" width="73" height="73" filterUnits="userSpaceOnUse" color-interpolation-filters="sRGB">
<feFlood flood-opacity="0" result="BackgroundImageFix"/>
<feColorMatrix in="SourceAlpha" type="matrix" values="0 0 0 0 0 0 0 0 0 0 0 0 0 0 0 0 0 0 127 0" result="hardAlpha"/>
<feOffset dy="4"/>
<feGaussianBlur stdDeviation="2"/>
<feComposite in2="hardAlpha" operator="out"/>
<feColorMatrix type="matrix" values="0 0 0 0 0 0 0 0 0 0 0 0 0 0 0 0 0 0 0.25 0"/>
<feBlend mode="normal" in2="BackgroundImageFix" result="effect1_dropShadow_125_40"/>
<feBlend mode="normal" in="SourceGraphic" in2="effect1_dropShadow_125_40" result="shape"/>
</filter>
</defs>
</svg>
