<svg width="12" height="19" viewBox="0 0 12 19" fill="none" xmlns="http://www.w3.org/2000/svg">
<path opacity="0.75" d="M0 0H12V7H0V0ZM6 1.75C6.53043 1.75 7.03914 1.93437 7.41421 2.26256C7.78929 2.59075 8 3.03587 8 3.5C8 3.96413 7.78929 4.40925 7.41421 4.73744C7.03914 5.06563 6.53043 5.25 6 5.25C5.46957 5.25 4.96086 5.06563 4.58579 4.73744C4.21071 4.40925 4 3.96413 4 3.5C4 3.03587 4.21071 2.59075 4.58579 2.26256C4.96086 1.93437 5.46957 1.75 6 1.75ZM2.66667 1.16667C2.66667 1.47609 2.52619 1.77283 2.27614 1.99162C2.02609 2.21042 1.68696 2.33333 1.33333 2.33333V4.66667C1.68696 4.66667 2.02609 4.78958 2.27614 5.00838C2.52619 5.22717 2.66667 5.52391 2.66667 5.83333H9.33333C9.33333 5.52391 9.47381 5.22717 9.72386 5.00838C9.97391 4.78958 10.313 4.66667 10.6667 4.66667V2.33333C10.313 2.33333 9.97391 2.21042 9.72386 1.99162C9.47381 1.77283 9.33333 1.47609 9.33333 1.16667H2.66667Z" fill="black"/>
<path opacity="0.75" d="M7.14286 9V10.0526H4.85714V9H7.14286ZM7.14286 11.1053V12.1579H4.85714V11.1053H7.14286ZM7.14286 13.2105V14.2632H4.85714V13.2105H7.14286ZM4 15.3158H8L6 19L4 15.3158Z" fill="black"/>
</svg>
