<svg width="18" height="10" viewBox="0 0 18 10" fill="none" xmlns="http://www.w3.org/2000/svg">
<path d="M0 0H18V10H0V0ZM9 2.5C9.79565 2.5 10.5587 2.76339 11.1213 3.23223C11.6839 3.70107 12 4.33696 12 5C12 5.66304 11.6839 6.29893 11.1213 6.76777C10.5587 7.23661 9.79565 7.5 9 7.5C8.20435 7.5 7.44129 7.23661 6.87868 6.76777C6.31607 6.29893 6 5.66304 6 5C6 4.33696 6.31607 3.70107 6.87868 3.23223C7.44129 2.76339 8.20435 2.5 9 2.5ZM4 1.66667C4 2.10869 3.78929 2.53262 3.41421 2.84518C3.03914 3.15774 2.53043 3.33333 2 3.33333V6.66667C2.53043 6.66667 3.03914 6.84226 3.41421 7.15482C3.78929 7.46738 4 7.89131 4 8.33333H14C14 7.89131 14.2107 7.46738 14.5858 7.15482C14.9609 6.84226 15.4696 6.66667 16 6.66667V3.33333C15.4696 3.33333 14.9609 3.15774 14.5858 2.84518C14.2107 2.53262 14 2.10869 14 1.66667H4Z" fill="black"/>
</svg>
