<svg width="65" height="65" viewBox="0 0 65 65" fill="none" xmlns="http://www.w3.org/2000/svg">
<path opacity="0.55" d="M7.22222 0H57.7778C59.6932 0 61.5302 0.76091 62.8847 2.11534C64.2391 3.46977 65 5.30677 65 7.22222V57.7778C65 59.6932 64.2391 61.5302 62.8847 62.8847C61.5302 64.2391 59.6932 65 57.7778 65H7.22222C5.30677 65 3.46977 64.2391 2.11534 62.8847C0.76091 61.5302 0 59.6932 0 57.7778V7.22222C0 5.30677 0.76091 3.46977 2.11534 2.11534C3.46977 0.76091 5.30677 0 7.22222 0ZM14.4444 7.22222C12.529 7.22222 10.692 7.98313 9.33756 9.33756C7.98313 10.692 7.22222 12.529 7.22222 14.4444C7.22222 16.3599 7.98313 18.1969 9.33756 19.5513C10.692 20.9058 12.529 21.6667 14.4444 21.6667C16.3599 21.6667 18.1969 20.9058 19.5513 19.5513C20.9058 18.1969 21.6667 16.3599 21.6667 14.4444C21.6667 12.529 20.9058 10.692 19.5513 9.33756C18.1969 7.98313 16.3599 7.22222 14.4444 7.22222ZM50.5556 43.3333C48.6401 43.3333 46.8031 44.0942 45.4487 45.4487C44.0942 46.8031 43.3333 48.6401 43.3333 50.5556C43.3333 52.471 44.0942 54.308 45.4487 55.6624C46.8031 57.0169 48.6401 57.7778 50.5556 57.7778C52.471 57.7778 54.308 57.0169 55.6624 55.6624C57.0169 54.308 57.7778 52.471 57.7778 50.5556C57.7778 48.6401 57.0169 46.8031 55.6624 45.4487C54.308 44.0942 52.471 43.3333 50.5556 43.3333ZM50.5556 25.2778C48.6401 25.2778 46.8031 26.0387 45.4487 27.3931C44.0942 28.7475 43.3333 30.5845 43.3333 32.5C43.3333 34.4155 44.0942 36.2524 45.4487 37.6069C46.8031 38.9613 48.6401 39.7222 50.5556 39.7222C52.471 39.7222 54.308 38.9613 55.6624 37.6069C57.0169 36.2524 57.7778 34.4155 57.7778 32.5C57.7778 30.5845 57.0169 28.7475 55.6624 27.3931C54.308 26.0387 52.471 25.2778 50.5556 25.2778ZM50.5556 7.22222C48.6401 7.22222 46.8031 7.98313 45.4487 9.33756C44.0942 10.692 43.3333 12.529 43.3333 14.4444C43.3333 16.3599 44.0942 18.1969 45.4487 19.5513C46.8031 20.9058 48.6401 21.6667 50.5556 21.6667C52.471 21.6667 54.308 20.9058 55.6624 19.5513C57.0169 18.1969 57.7778 16.3599 57.7778 14.4444C57.7778 12.529 57.0169 10.692 55.6624 9.33756C54.308 7.98313 52.471 7.22222 50.5556 7.22222ZM14.4444 25.2778C12.529 25.2778 10.692 26.0387 9.33756 27.3931C7.98313 28.7475 7.22222 30.5845 7.22222 32.5C7.22222 34.4155 7.98313 36.2524 9.33756 37.6069C10.692 38.9613 12.529 39.7222 14.4444 39.7222C16.3599 39.7222 18.1969 38.9613 19.5513 37.6069C20.9058 36.2524 21.6667 34.4155 21.6667 32.5C21.6667 30.5845 20.9058 28.7475 19.5513 27.3931C18.1969 26.0387 16.3599 25.2778 14.4444 25.2778ZM14.4444 43.3333C12.529 43.3333 10.692 44.0942 9.33756 45.4487C7.98313 46.8031 7.22222 48.6401 7.22222 50.5556C7.22222 52.471 7.98313 54.308 9.33756 55.6624C10.692 57.0169 12.529 57.7778 14.4444 57.7778C16.3599 57.7778 18.1969 57.0169 19.5513 55.6624C20.9058 54.308 21.6667 52.471 21.6667 50.5556C21.6667 48.6401 20.9058 46.8031 19.5513 45.4487C18.1969 44.0942 16.3599 43.3333 14.4444 43.3333Z" fill="black"/>
</svg>
